<?xml version="1.0" encoding="UTF-8" standalone="no"?>
<!-- Created with Inkscape (http://www.inkscape.org/) -->

<svg
   width="500"
   height="500"
   viewBox="0 0 132.29166 132.29167"
   version="1.1"
   id="svg1"
   xml:space="preserve"
   inkscape:version="1.4.2 (ebf0e940, 2025-05-08)"
   sodipodi:docname="logo.svg"
   xmlns:inkscape="http://www.inkscape.org/namespaces/inkscape"
   xmlns:sodipodi="http://sodipodi.sourceforge.net/DTD/sodipodi-0.dtd"
   xmlns="http://www.w3.org/2000/svg"
   xmlns:svg="http://www.w3.org/2000/svg"><sodipodi:namedview
     id="namedview1"
     pagecolor="#ffffff"
     bordercolor="#000000"
     borderopacity="0.25"
     inkscape:showpageshadow="2"
     inkscape:pageopacity="0.0"
     inkscape:pagecheckerboard="0"
     inkscape:deskcolor="#d1d1d1"
     inkscape:document-units="mm"
     inkscape:zoom="0.89887065"
     inkscape:cx="308.72073"
     inkscape:cy="323.18332"
     inkscape:window-width="1512"
     inkscape:window-height="916"
     inkscape:window-x="0"
     inkscape:window-y="38"
     inkscape:window-maximized="0"
     inkscape:current-layer="g1" /><defs
     id="defs1" /><g
     inkscape:label="Layer 1"
     inkscape:groupmode="layer"
     id="layer1"><g
       id="g1"
       transform="translate(5.2983147,-3.2378595)"
       style="display:inline"><g
         id="g7"
         transform="translate(-51.658573,-119.35927)"
         style="display:inline"><path
           style="display:inline;fill:#ebd6a0"
           d="m 125.27356,252.72593 c -6.17427,0.4061 -12.54943,-0.11098 -18.09551,-3.07789 -7.532858,-3.26545 -14.372441,-8.86309 -17.70458,-16.49794 -4.289986,-9.29282 -3.781414,-19.73665 -4.13808,-29.72244 -0.0046,-3.25095 -0.0092,-6.5019 -0.01383,-9.75285 -4.883048,-0.71735 -9.872015,-0.14807 -14.798812,-0.334 -2.262345,1.58794 -4.77262,3.21654 -7.666794,2.91042 0.106185,1.92996 -1.016887,3.23531 -3.007459,2.64583 -1.439155,-1.51073 -0.41032,-4.21706 -0.720767,-6.22855 0,-3.10569 0,-6.21138 0,-9.31707 1.481624,-1.40165 3.719653,-0.41464 3.897924,1.16536 2.78579,0.004 5.195636,1.68356 7.407564,2.99959 4.783287,-0.079 9.599626,0.45357 14.359097,-0.0661 0.0147,-9.40506 -1.397081,-18.84594 -4.138102,-27.8367 -3.274831,-10.44389 -8.544372,-20.48088 -16.409902,-28.18529 -1.288226,-1.61741 -4.173448,-2.46484 -3.529021,-4.93484 1.575835,-2.25257 4.566058,-0.93394 6.895838,-1.28287 21.862652,0 43.725304,0 65.587954,0 1.80479,1.17252 2.05481,3.36293 -0.18063,4.16807 -4.90727,3.88009 -9.0567,8.67062 -12.18221,14.09782 -4.06006,5.85008 -6.90125,12.45814 -8.53214,19.3826 -2.23049,7.96255 -3.31591,16.19997 -4.04156,24.42439 1.59648,0.80705 3.98822,-0.0886 5.77694,-0.34608 0.90912,-1.68975 0.18565,-4.19616 0.89915,-6.12462 1.13035,-5.25996 4.14986,-10.07976 8.40843,-13.38663 3.92966,-3.29952 9.20249,-5.03728 14.32111,-5.06253 3.13732,0.0782 6.30977,-0.0201 9.16221,1.48929 3.99736,1.5847 7.27556,4.89918 9.35783,8.58748 2.37349,3.97843 3.59145,8.50958 3.48987,13.14493 0.60741,11.2993 0.0194,22.62718 0.10473,33.93896 0.23643,5.29227 -1.38308,10.54992 -3.66359,15.26725 -3.36846,6.67144 -9.20061,11.88679 -16.00322,14.89417 -4.48301,2.10335 -9.38518,3.334 -14.35789,3.031 l -0.32525,0.006 z m 2.91042,-16.09921 c 4.2881,0.25978 8.44541,-1.44319 12.00528,-3.68904 3.0553,-2.7253 5.9024,-5.87507 6.79205,-9.99803 1.65949,-5.86902 1.08196,-12.1103 1.57081,-18.14998 0.0116,-7.06573 0.42538,-14.17142 0.18991,-21.21261 -0.42088,-3.1122 -1.60927,-6.10287 -4.12939,-8.09201 -2.84887,-2.35436 -6.87255,-3.15947 -10.48286,-2.30915 -5.2595,1.11768 -9.87497,5.2101 -10.91992,10.59044 -1.21299,2.53221 2.29404,1.34973 3.67058,1.68168 4.64881,0.25879 9.32654,2.04474 12.21323,5.83589 4.69041,5.63091 4.14342,13.44809 3.58352,20.30028 -0.0258,6.26043 -4.36658,12.46111 -10.62017,13.80025 -2.98873,0.43225 -6.21151,0.5282 -9.07009,-0.65546 -3.61626,-1.62779 -6.44722,-4.6614 -7.85463,-8.37982 -1.69396,-5.66968 -0.68323,-11.70848 -0.96529,-17.55297 -0.34257,-1.78905 0.71002,-4.26363 -0.59316,-5.58069 -1.7332,0.24419 -3.9896,-0.18007 -5.46668,0.78694 -0.39335,9.0186 -1.01254,18.0871 -0.5435,27.09176 0.71064,3.83214 2.28516,7.67777 5.34938,10.21161 2.93271,3.31034 7.44133,4.72412 11.69996,5.41129 1.19032,-0.0301 2.38065,-0.0602 3.57097,-0.0904 z m 1.39988,-19.01118 c 2.3878,0.42771 4.11487,-1.74585 4.84434,-3.77444 1.03438,-2.98321 0.35078,-6.34914 0.68337,-9.48868 -0.0999,-3.67995 -1.32809,-7.97522 -5.09905,-9.40481 -2.21237,-1.08027 -4.79807,-0.80732 -7.1324,-1.53636 -0.59071,3.4823 -0.1394,7.2647 -0.32301,10.86424 0.09,2.91807 -0.26135,5.94643 0.0935,8.79835 0.85329,1.81299 1.74235,3.58916 3.83415,4.12781 0.93893,0.76366 1.99688,0.43887 3.09915,0.41389 z"
           id="path13" /><path
           style="display:inline;fill:#fce95a"
           d="m 124.21523,252.75484 c -7.16941,0.60092 -14.21501,-1.86739 -20.50295,-5.11357 -3.4148,-2.16769 -6.787896,-4.38629 -9.426829,-7.50087 -6.492941,-7.77474 -8.358422,-18.28867 -8.351838,-28.16578 -0.150338,-6.20946 -0.559912,-12.41874 -0.21527,-18.62856 -3.473122,-0.63431 -7.164566,-0.087 -10.721147,-0.26963 -2.432025,0.0849 -5.087604,-0.5675 -6.943828,1.41654 -1.567877,1.10143 -3.562746,1.61586 -5.475977,1.49387 0.687764,2.17428 -2.72401,3.52076 -2.999753,1.44222 -0.454601,-2.67025 -0.03522,-5.38215 -0.05305,-8.07322 1.967862,-0.24865 2.14743,-3.91027 0.330591,-2.0057 -0.618032,-0.48036 -0.943232,-3.47081 0.172118,-4.32787 2.345391,-0.9483 1.829085,1.79924 3.372129,1.84943 2.580638,0.064 4.776183,1.46016 6.708496,3.04526 4.885972,0 9.771945,0 14.657917,0 1.04501,-1.42326 0.0016,-3.56823 0.215849,-5.27858 -0.662545,-12.83107 -3.608164,-25.67076 -9.707892,-37.04517 -3.664614,-6.38341 -8.011501,-12.61091 -13.897124,-17.14816 -1.388392,-1.9316 1.335896,-3.86185 3.219331,-3.33425 22.675912,-0.0115 45.351827,-0.0229 68.027737,-0.0344 1.58018,0.85939 2.54777,3.03875 0.36848,3.86577 -5.72283,4.31377 -10.11456,10.07495 -13.7468,16.20286 -6.05318,9.42546 -8.39933,20.61779 -10.10363,31.53255 -0.51088,3.80254 -0.98676,7.60845 -1.15075,11.44446 2.20098,-0.54605 4.66297,-0.11755 6.69918,-1.14972 -0.11568,-6.6227 2.28036,-13.41908 7.22709,-17.94579 4.35282,-4.29305 10.58908,-6.50311 16.66754,-6.34289 6.68248,-0.51526 13.29688,3.21229 16.78827,8.86798 2.04587,3.31325 3.56168,7.16526 3.88217,11.04924 -0.0163,13.41076 0.26851,26.84664 0.0635,40.24166 -0.89301,6.79289 -3.59429,13.41459 -8.17717,18.55027 -5.96182,6.50868 -14.5924,10.26633 -23.26975,11.28361 -1.21888,0.0261 -2.43775,0.0523 -3.65663,0.0784 z m 14.80563,-13.50622 c 4.2513,-1.45865 7.80916,-4.90754 9.83276,-8.90183 -0.91437,-0.62742 -2.65999,2.60003 -3.90539,3.50776 -1.86521,2.33077 -4.93859,3.31291 -6.83195,5.59276 0.30153,-0.0662 0.60305,-0.13246 0.90458,-0.19869 z m -10.96917,-2.3494 c 2.89971,0.20831 5.67357,-0.32253 8.3482,-1.43604 3.59183,-1.42595 6.55516,-4.22109 8.7502,-7.35292 2.54907,-3.87507 3.12778,-8.5194 3.24904,-13.05487 0.43857,-10.66772 0.91052,-21.3814 0.57107,-32.04546 -0.29738,-3.35396 -2.07823,-6.32903 -4.74326,-8.34458 -4.14354,-2.96948 -10.02047,-2.68279 -14.40054,-0.33606 -4.0936,2.30682 -7.25405,6.66001 -7.19637,11.47108 4.31635,-0.15145 8.76544,0.13542 12.53923,2.46118 2.34581,1.5481 4.48742,3.74586 5.51095,6.43503 2.84286,5.45579 2.08352,11.8726 1.6174,17.78881 -0.51219,3.98085 -2.36938,8.12716 -5.71424,10.47095 -3.63308,2.37902 -8.23335,3.17882 -12.37273,1.74862 -3.77293,-1.27599 -7.02978,-4.1654 -8.36735,-7.96751 -2.29214,-5.17006 -1.10456,-11.02239 -1.40933,-16.51848 -0.002,-2.36199 -0.005,-4.72398 -0.007,-7.08597 -2.14503,-0.62788 -4.53667,0.22631 -6.74688,0.21136 0.11703,9.58688 -1.27278,19.19324 -0.34424,28.75158 0.74098,4.01963 2.93871,7.53332 5.95987,10.24228 4.01617,3.48811 9.47135,5.11847 14.75604,4.561 z m 1.00532,-18.95219 c 3.87768,0.6925 6.68612,-3.66784 6.13843,-7.1669 -0.27404,-4.20085 0.73464,-8.59581 -0.91519,-12.58845 -1.68461,-2.90245 -4.80714,-4.467 -8.10809,-4.55664 -1.53655,0.73901 -4.08098,-2.32064 -3.80693,0.0415 -0.0511,6.11703 -0.3653,12.26909 -0.25471,18.36459 0.47513,3.34702 3.37051,6.43803 6.94649,5.90587 z m -37.804456,-28.3311 c 1.871332,-0.17174 -1.704994,-0.14203 0,0 z m 32.485906,-17.61384 c 0.71818,-0.50021 4.23931,-2.89402 2.51147,-2.41291 -0.75821,0.45003 -3.5078,2.26098 -2.51147,2.41291 z M 83.101736,126.89302 c 2.730069,-0.0273 5.479945,0.23523 8.172867,-0.33556 -4.247397,-0.78917 -8.652437,-0.19507 -12.964584,-0.41608 -2.485761,0.19051 -3.528873,0.53308 -0.46914,0.71624 1.753619,0.0118 3.507238,0.0236 5.260857,0.0354 z"
           id="path12" /><path
           style="display:inline;fill:#f6d123"
           d="m 123.0936,252.84065 c -7.2176,0.18023 -14.25276,-2.4104 -20.44244,-5.95523 -6.250854,-3.83471 -11.639923,-9.48448 -13.852379,-16.59925 -3.599034,-9.46626 -2.675504,-19.74746 -3.233917,-29.66914 0.0429,-2.46944 0.0858,-4.93889 0.1287,-7.40833 -5.147895,-0.8392 -10.393233,-0.0183 -15.585626,-0.0994 -2.09974,1.51705 -4.457107,3.02714 -7.170209,2.61291 -0.955297,1.35353 -0.547381,3.48218 -3.091617,2.64583 -0.442224,-2.09339 -0.06198,-5.00923 -0.189216,-7.41761 0.888826,-1.35081 2.484095,-2.41502 1.852083,-4.3828 -1.649942,-0.36297 -2.829579,-2.20308 -1.218126,-3.46503 2.211398,-0.68784 1.412304,2.28602 3.322062,2.03137 2.568788,-0.0782 4.714575,1.46541 6.698737,2.91521 4.78279,-0.003 9.56558,-0.005 14.34837,-0.008 1.329617,-1.03642 0.06362,-3.38374 0.351974,-4.94604 -0.657628,-14.40979 -4.186511,-28.97718 -11.954214,-41.25541 -3.141468,-5.39743 -7.443527,-9.92826 -12.077969,-14.06253 -2.88e-4,-1.65831 2.154187,-3.18369 3.798185,-2.68587 3.366772,0.17809 6.731523,0.38711 10.09244,0.65479 -1.987846,0.35714 -4.267817,-0.20343 -6.064218,0.75513 4.53583,0.99053 9.288592,0.61192 13.912314,1.04773 5.48821,-0.34363 11.051936,-0.19559 16.493572,-0.84245 1.601614,-0.45956 -2.82632,-0.54129 -3.791457,-0.71373 -2.924627,-0.11486 -3.029063,-0.33993 -0.08742,-0.68407 12.377431,-0.1375 24.764891,-0.15584 37.146181,-0.24752 1.94623,1.20263 2.46666,3.36442 -0.0242,4.26335 -5.31749,4.0106 -9.37773,9.44182 -12.75952,15.13734 -4.62427,6.69441 -7.10174,14.52382 -8.80399,22.40803 -1.72549,6.58197 -2.53083,13.42095 -3.06132,20.16207 0.11862,2.17892 3.07081,0.42285 4.51027,0.76751 2.13408,0.13692 2.69976,-1.27046 2.4703,-3.18221 0.39159,-6.24441 3.26774,-12.36813 8.18894,-16.31325 2.85215,-2.91598 6.94908,-4.30702 10.84756,-5.17519 5.57249,-0.83525 11.68281,-0.43461 16.33639,3.05135 5.42813,4.09906 8.48851,10.65703 9.08362,17.3524 0.31275,9.7614 -0.0357,19.57332 0.0208,29.35431 -0.21572,4.254 0.36745,8.61384 -0.38449,12.79681 -1.47162,6.46978 -4.4684,12.69887 -9.45756,17.18145 -6.27456,6.21245 -15.11868,9.37834 -23.81711,9.99826 -0.84516,-0.008 -1.69032,-0.0152 -2.53548,-0.0228 z m 6.54559,-9.87189 c 4.7233,0.0503 9.28262,-1.95068 13.19838,-4.44393 5.86089,-3.84932 9.32777,-10.52722 10.20246,-17.3804 0.70545,-5.81742 0.6229,-11.73246 0.83987,-17.59145 -0.13581,-6.27958 -0.0122,-12.60165 -0.30861,-18.85493 -0.16372,-1.98965 -1.70859,-3.52813 -1.70586,-0.6177 -0.36019,10.44643 -0.062,20.93853 -0.57573,31.37865 -0.32711,5.34926 -1.31256,10.90179 -4.79234,15.17234 -3.75668,4.40319 -8.58814,8.0865 -14.32447,9.41618 -2.51657,0.98811 -5.28257,1.00086 -7.77925,1.99647 1.33691,1.35445 3.52102,0.94883 5.24555,0.92477 z m -2.07212,-5.88188 c 6.53876,0.18387 13.36517,-2.67923 17.13375,-8.15438 3.23759,-4.46694 3.77175,-10.10613 3.86975,-15.46992 0.39041,-10.42817 0.8185,-20.89352 0.37572,-31.31614 -0.64144,-4.90874 -4.8799,-8.95047 -9.78223,-9.45716 -3.17193,-0.62768 -6.64666,0.1831 -9.43608,1.71115 -2.14817,1.34386 -4.195,2.78845 -5.34951,5.11996 -1.12869,1.89337 -1.73685,4.07654 -1.81176,6.2849 4.74281,-0.0934 10.13417,0.1923 13.80455,3.507 2.54657,2.25673 4.75904,4.95984 5.45797,8.37384 1.26177,3.91198 0.59045,8.11461 0.62673,12.16245 -0.002,5.59549 -2.47438,11.76086 -7.84981,14.12755 -5.31396,2.73266 -12.50168,1.43637 -16.23242,-3.33703 -3.53612,-3.49947 -4.12019,-8.84308 -3.94836,-13.59591 -1.8e-4,-4.63678 -3.7e-4,-9.27357 -5.6e-4,-13.91035 -2.14503,-0.62779 -4.53666,0.22622 -6.74688,0.21136 0.10391,9.01053 -1.05675,18.02754 -0.54813,27.01944 0.51024,6.50976 4.74368,12.56665 10.85103,14.98164 3.00178,1.43081 6.32617,1.8874 9.58624,1.7416 z m -30.918568,-6.77231 c -0.06282,-3.62589 -1.627022,-7.12464 -1.732189,-10.79378 -0.762997,-7.65503 -0.369879,-15.38949 -0.65502,-23.07734 0.627792,-2.15683 -2.985609,-2.57166 -3.383568,-0.756 0.117874,10.34352 -0.728701,21.03738 2.635852,30.98077 0.861469,1.66068 1.497359,3.48591 3.05263,4.64048 0.02743,-0.33138 0.05486,-0.66275 0.08229,-0.99413 z m 33.973318,-9.76454 c 4.21839,0.12923 7.14762,-4.13125 7.28653,-8.0395 0.54592,-3.34068 0.40891,-6.83657 -0.0394,-10.13223 -0.97325,-1.52477 -0.34283,3.12125 -0.6424,4.09908 -0.19337,3.73279 0.27718,8.20205 -2.86673,10.87108 -1.13343,2.0039 -3.64874,1.91324 -5.28308,3.03377 -0.70885,0.68124 1.37892,-0.016 1.54506,0.1678 z m -1.18426,-2.52395 c 4.05435,0.5609 6.14799,-4.04837 5.99059,-7.47439 -0.12183,-4.75521 0.86225,-10.24858 -2.44965,-14.15862 -2.3099,-2.78742 -6.22468,-2.45127 -9.37738,-3.22019 -2.03162,-1.91554 -0.96079,2.15748 -1.32204,3.26407 -0.0842,4.9392 -0.57169,9.91863 -0.36823,14.83414 0.34199,3.06393 2.14002,6.09771 5.36072,6.71623 0.68331,0.20566 1.45502,-0.002 2.16599,0.0388 z m -11.96248,-4.62758 c 0.36814,-9.48064 0.10968,-19.16888 0.41873,-28.70857 0.78205,-4.86824 3.19813,-9.52016 7.10648,-12.6016 3.47677,-3.16826 8.10674,-4.76151 12.74758,-5.18914 2.67217,-0.23379 -0.21568,-1.91259 -1.55225,-1.62934 -6.02487,0.19737 -12.00567,3.04754 -15.43351,8.09289 -2.6898,3.55892 -4.51275,8.03485 -4.0794,12.56608 0.0603,8.52262 -0.13186,17.08255 0.0851,25.58203 0.25303,0.48586 0.35314,1.84041 0.70724,1.88765 z M 93.126686,190.10257 c 2.215189,0.0863 4.42585,0.0898 6.614584,-0.30743 -4.613004,-1.00271 -9.421123,-0.31096 -14.117708,-0.58783 -5.147873,-0.0494 -10.295745,-0.0988 -15.443618,-0.14823 0.711117,1.61159 3.544726,0.3238 5.101411,0.78031 5.94844,0.088 11.897016,0.16701 17.845331,0.26318 z m 17.264064,-0.22656 c 1.07134,0.0348 4.58859,-0.34569 3.78325,-1.33241 -1.57131,0.42593 -4.29343,0.0687 -5.04002,1.35781 0.41892,-0.008 0.83785,-0.0169 1.25677,-0.0254 z m -18.057814,-1.60105 c 2.144896,0.33966 3.482828,-0.50818 2.507236,-2.7392 -0.529578,-13.37281 -0.492612,-26.83255 -2.75114,-40.05989 -0.533179,-3.41222 -1.263463,-7.00658 -3.203711,-9.88523 -0.81136,-1.59765 -3.185798,-2.28416 -3.550365,-0.018 -0.998327,2.97356 0.499205,6.10662 0.857769,9.11309 2.60761,11.39993 3.373547,23.12576 4.165779,34.76466 0.03132,2.85859 0.06262,5.71718 0.09393,8.57577 0.622498,0.13163 1.239915,0.26799 1.880502,0.24883 z"
           id="path11" /><path
           style="display:inline;fill:#dc9805"
           d="m 123.34569,252.87224 c -1.86211,0.0882 -3.5915,0.0513 -5.25332,-0.56974 -5.78868,-0.48804 -11.1596,-3.07299 -16.11039,-5.94908 -4.45033,-2.72467 -8.258499,-6.47805 -10.912928,-10.97859 -4.207351,-7.55853 -4.879618,-16.3948 -5.025561,-24.88157 -0.334643,-5.75383 -0.280037,-11.51694 -0.325139,-17.27768 -4.762724,-0.76451 -9.67169,-0.182 -14.493679,-0.40073 -2.191401,0.48174 -3.875148,2.5598 -6.263398,2.7953 -1.854597,-0.23862 -3.228466,0.48659 -2.923132,2.60764 -2.152307,0.98883 -2.649734,-1.10029 -2.231996,-3.08437 -0.194849,-2.06064 0.09523,-4.19616 1.80619,-5.56361 0.259254,-1.77008 0.559694,-4.32256 -1.560633,-4.45221 -2.041485,-1.94009 2.411897,-2.81651 1.986432,-0.85452 0.838087,1.45862 3.398424,0.70334 4.872546,1.64412 1.741214,1.05055 3.289952,2.66001 5.506263,2.14763 4.153633,-0.0795 8.448256,0.32966 12.515609,-0.0488 1.046441,-1.25859 0.04083,-3.582 0.263314,-5.26813 -0.428943,-8.68838 -2.081175,-17.34262 -4.852163,-25.58309 -3.324252,-9.48832 -8.28826,-18.57209 -15.396187,-25.75835 -1.292509,-1.35737 -3.125707,-2.27828 -4.009932,-3.96522 0.735755,-2.37093 2.56079,-0.56246 4.167574,-0.63025 6.312911,0.74081 12.711842,0.63591 19.023939,1.18093 7.750872,-0.48677 15.559429,-0.64024 23.279691,-1.21575 1.54021,-0.66928 -3.17882,-0.51258 -4.28451,-0.91674 -3.269328,-0.39742 3.09411,-0.0305 2.66753,-0.40318 -1.41267,-0.67996 3.28205,-0.14127 4.42796,-0.3107 7.48244,0.006 14.96489,0.0116 22.44734,0.0174 0.14074,0.56265 3.25874,2.78007 0.30159,3.73043 -3.30692,2.31653 -5.94343,5.47797 -8.62327,8.45441 -4.8597,7.331 -10.11982,14.72723 -11.98137,23.4861 -2.60391,8.82194 -4.20744,17.98243 -4.55261,27.16885 2.05149,0.52445 4.2799,-0.41161 6.39942,-0.44877 1.44635,-1.2276 0.51252,-3.66516 0.96769,-5.39663 1.42145,-9.41109 9.2578,-17.52831 18.74739,-18.89998 2.87487,-0.56447 5.94439,-0.51135 8.82636,-0.1092 3.76899,0.70573 7.31069,2.53575 9.73772,5.54742 4.01436,3.57257 6.07942,9.03067 6.50489,14.29413 0.8464,12.30349 0.16539,24.64514 0.27228,36.96711 0.41489,4.99332 -1.33151,9.82109 -3.34824,14.30606 -3.50269,6.9868 -9.72504,12.34948 -16.88837,15.35715 -3.53824,1.91579 -7.63955,2.09864 -11.438,3.02782 -1.26987,0.52453 -2.87571,0.0943 -4.2469,0.23443 z m 3.91225,-8.39825 c 8.20565,-0.33245 16.5947,-3.87574 21.59335,-10.55719 4.12997,-5.3191 5.20199,-12.21324 5.3362,-18.77514 0.36911,-9.69937 0.14946,-19.43107 0.13484,-29.13212 -0.3941,-2.09261 -0.51248,-4.73965 -2.10856,-6.18789 -2.0485,-0.51117 -0.77021,3.06931 -1.06223,4.3865 -0.0579,10.79698 -0.24858,21.60968 -0.56345,32.39721 -0.45946,4.70145 -1.27224,9.65732 -4.65424,13.22344 -3.87722,5.08097 -9.41201,9.25412 -15.93297,9.93885 -5.34401,1.23491 -10.87169,0.66337 -16.0687,-0.95388 -1.38701,-0.72556 -4.62261,-1.13838 -2.87217,1.17095 1.17463,1.50906 3.41425,1.99108 5.06517,2.94498 3.58364,1.25389 7.3384,1.82524 11.13276,1.54429 z m 0.92604,-7.35703 c 5.01863,0.37299 9.76678,-1.97012 13.72392,-4.87858 4.34853,-4.13708 6.80828,-10.05561 6.61927,-16.05623 0.47489,-10.67671 0.7119,-21.38209 0.77173,-32.05953 -0.0259,-3.24201 -1.29598,-6.37396 -3.78647,-8.5049 -3.30195,-3.12026 -8.39603,-3.94009 -12.67591,-2.49908 -4.09682,1.14107 -7.69319,4.02884 -9.28133,8.03233 -0.3933,1.30579 -2.17506,4.40154 -0.25109,4.75863 5.44555,-0.25206 11.61643,0.78118 15.08852,5.41561 3.91481,4.02344 4.34664,10.07433 4.11084,15.41136 0.0465,5.43321 -0.68747,11.51271 -4.9824,15.32452 -1.95285,1.6775 -4.62263,2.94018 -7.22229,3.09422 -3.35449,0.20896 -6.85437,-0.11455 -9.57708,-2.28997 -3.25662,-2.39322 -5.59381,-6.10914 -5.92492,-10.18478 -0.46286,-6.44963 -0.20136,-12.97102 -0.38462,-19.44834 -2.07357,-0.66933 -4.55058,-0.20781 -6.73335,0.15545 -0.1362,5.55516 -0.0556,11.18692 -0.60498,16.68815 -0.33165,3.64142 -0.15395,7.43695 0.079,11.11424 0.50888,4.19246 2.48115,8.09363 5.64439,10.90514 4.07611,3.78839 9.86145,5.573 15.38672,5.02176 z m -28.244273,-0.93024 c 0.779673,-1.64254 -0.937761,-3.93226 -1.433619,-5.75873 -3.62861,-10.04383 -2.798231,-20.90613 -2.774152,-31.39506 -0.09835,-1.80297 0.782188,-4.71822 -1.789104,-4.9364 -1.541101,-0.37482 -4.2229,-0.45922 -4.19821,1.69507 0.361252,8.51907 -0.286594,17.12006 1.034749,25.56736 0.92139,5.56149 3.458111,11.23947 8.201113,14.50225 0.321011,0.0958 0.616086,0.32551 0.959223,0.32551 z m 29.038023,-14.83111 c 3.8167,0.0951 7.64396,-2.21632 8.72616,-5.99458 0.98844,-2.78829 0.95174,-5.89875 1.06463,-8.83533 -0.35657,-2.33448 0.31134,-5.73535 -1.93393,-7.09934 -0.55392,1.41548 0.078,3.96817 -0.0191,5.82168 -0.11724,3.66786 0.14837,7.53285 -1.57823,10.8916 -1.29995,1.70453 -2.9509,2.83304 -5.0842,3.16997 -2.03745,0.53567 -4.29634,0.0691 -6.3347,-0.38716 1.14481,1.66081 3.19034,2.44206 5.15938,2.43316 z m 0.14567,-3.29825 c 1.84282,0.26351 3.43718,-0.20851 4.56312,-1.7362 2.70364,-3.19166 1.45986,-7.73472 1.91216,-11.58822 0.0684,-4.06735 -1.42174,-8.90813 -5.63736,-10.36015 -2.34418,-1.1845 -5.2054,-0.30139 -7.39787,-1.81708 -0.99891,1.37454 -0.21801,3.75196 -0.48933,5.53648 0.0564,5.06719 -0.2878,10.24565 0.0525,15.24199 1.21056,2.83948 3.68299,5.29185 6.99682,4.72318 z m -10.4547,-1.8898 c 0.11952,-2.68312 -0.82344,-5.64259 -0.50388,-8.47355 -0.0286,-8.28058 -0.0411,-16.60226 0.54021,-24.8463 1.36664,-5.05851 4.6247,-9.72039 9.17263,-12.34104 2.52668,-1.42868 5.16566,-2.50931 8.09075,-2.7032 3.94053,-0.69969 7.77317,0.98206 11.27267,2.51877 -1.04616,-4.12617 -5.76339,-5.33585 -9.46937,-5.59246 -4.50676,-0.0369 -9.10681,1.00791 -12.86007,3.55165 -3.42677,3.12295 -6.65919,6.70898 -7.85012,11.30725 -1.18668,3.70951 -0.85575,7.76204 -0.91814,11.62939 0.17732,7.19408 0.0416,14.45078 0.41258,21.60613 0.53566,1.00694 0.95744,3.43557 2.11274,3.34336 z m 15.95578,-23.63966 c 0.11673,-1.13801 -1.83182,-2.59156 -3.02317,-3.40588 -2.22195,-0.96199 -4.63784,-0.59843 -6.98921,-0.67585 0.0787,1.72957 3.19839,0.95687 4.52562,1.65909 2.0366,0.20475 3.76293,1.52853 5.48676,2.42264 z m -34.31641,-2.26963 c 4.78803,-0.27666 9.69052,0.48984 14.38216,-0.66526 0.63344,-2.38142 -2.42328,-0.74242 -3.72854,-0.76375 -4.99669,1.43488 -10.23984,0.57885 -15.300045,0.0947 -1.082245,-0.2778 2.386551,-0.83806 0.932991,-2.83243 -0.150052,-13.63044 -0.746151,-27.2441 -1.571573,-40.84914 -0.130109,-5.46502 -1.25828,-11.38613 -5.278036,-15.37562 -2.052647,-1.34786 -4.605257,-1.83595 -6.934638,-1.29013 -2.700212,1.45284 -1.188136,5.01259 -1.560094,7.48219 2.454138,7.52707 4.675292,15.145 5.646244,23.02608 1.528861,9.70686 2.299732,19.52693 2.398876,29.35267 -3.100579,0.83356 -6.490768,0.1566 -9.706984,0.38703 -3.184463,0.2195 -6.527687,-0.41283 -9.612786,0.3398 -0.08116,1.88085 3.127544,0.41692 4.345947,0.92663 8.662568,0.18949 17.32203,0.31288 25.986478,0.16726 z m -36.353001,-0.50443 c 2.45207,-0.2387 2.333754,-2.19851 -0.06484,-2.27219 -1.163801,-0.93338 -1.121748,3.31605 0.06484,2.27219 z m 41.725571,-32.80629 c 1.49779,-3.77836 1.96328,-8.02954 2.72999,-12.06074 -1.28753,-1.26725 -1.31891,2.57476 -1.82967,3.57489 -0.61533,2.8651 -1.14984,5.8002 -1.15115,8.73721 l 0.22899,-0.22947 z"
           id="path10" /><path
           style="display:inline;fill:#c77501"
           d="m 98.051497,243.35898 c -4.084551,-3.63076 -7.518976,-8.08868 -9.119996,-13.37478 -3.743699,-10.33257 -2.638838,-21.51208 -3.035749,-32.29542 0.374601,-1.51794 -1.037188,-4.45838 1.005768,-4.85141 1.422381,0.051 4.66273,0.35346 2.124124,1.8471 0.03513,8.69572 -0.220714,17.45584 0.930385,26.08618 0.718382,5.68385 3.120849,11.37155 7.548211,15.13543 1.375676,1.56035 3.21716,2.71031 5.25216,3.16293 0.73901,-2.11253 0.9455,-2.27882 2.70978,-0.44299 5.40631,4.66852 12.58368,7.0794 19.69923,7.09044 4.1118,-0.0222 8.26295,-0.69986 12.14677,-2.09674 2.29184,-0.002 -3.71371,2.0942 -0.36161,1.26577 4.23527,-1.15563 7.38317,-4.33718 10.26043,-7.48206 5.30838,-5.54973 7.84868,-13.31865 7.53813,-20.93254 0.0757,-9.43542 0.56973,-18.88361 0.37985,-28.31092 -0.18729,-3.02516 -0.32979,-6.04237 -1.56697,-8.85084 -1.12223,-4.05312 -1.78142,-8.5642 -5.17457,-11.44289 -4.61209,-3.4405 -10.85332,-4.34598 -16.4278,-3.12012 -4.12864,0.74922 -7.84966,2.96886 -10.49102,6.23223 -3.96979,4.32984 -6.13698,10.37436 -5.76611,16.25647 0.14244,7.63703 -0.20606,15.30457 0.25303,22.92191 0.16953,2.83099 0.95064,5.77673 3.24822,7.61621 1.24887,-1.33366 -0.69423,-3.45106 -0.37146,-5.15795 -0.42142,-8.8616 0.2494,-17.74682 0.28081,-26.61821 -0.16977,-3.92154 1.74455,-7.62392 3.96062,-10.7206 3.44168,-4.61511 9.28436,-7.16432 14.99832,-7.06005 5.04508,-0.0678 9.854,3.02076 12.23514,7.43824 0.68149,2.9013 -1.37769,0.84618 -2.26915,-0.616 -1.89274,-2.37214 -1.62818,-1.17678 -1.11976,0.92783 -0.61283,0.85792 -2.52488,-2.21654 -4.08905,-2.31198 -1.69947,-1.58415 -4.19898,-0.48971 -5.91382,-1.87188 -1.60624,1.07437 -3.72965,0.54817 -5.45152,1.61487 -1.93597,0.25256 -3.28824,2.131 -5.09049,2.93001 -1.70212,1.57359 -2.69773,3.90036 -3.59949,6.08241 -0.39831,1.82343 -1.12767,4.41587 1.7594,3.6661 4.34456,0.008 8.92087,0.73554 12.22367,3.79578 4.46895,3.81298 6.01079,10.01745 5.51312,15.69986 0.0119,4.86852 -0.0656,10.06534 -3.02062,14.19032 -1.96013,3.06319 -5.58961,4.88751 -9.10835,5.36415 -2.66494,-0.0952 -5.4139,0.14863 -7.6978,-1.48387 -2.27956,-0.89916 -3.76726,-3.0745 -5.38526,-4.79475 -3.41499,-5.60321 -2.1235,-12.31666 -2.36757,-18.52784 v -6.96487 c -1.45112,-1.42692 -3.44949,-0.1329 -5.28039,-0.49353 -2.92026,-0.19281 -1.43862,2.50262 -1.88932,4.19267 0.1671,4.80654 -1.36171,12.26623 -0.79847,16.82341 -0.12959,5.1152 -0.15901,10.50687 2.62362,15.01686 1.37638,2.22615 3.61362,3.93821 5.49776,5.74217 2.87929,1.88927 6.1817,2.75775 9.60571,2.78856 3.74279,0.74337 7.52265,0.18 11.05176,-1.19835 1.38681,-0.637 3.4032,-1.22297 4.11858,-1.87354 0.90822,-0.23285 1.66814,-1.33535 2.98445,-1.92164 -2.48146,2.57802 -5.70841,4.59825 -9.10192,5.74636 -3.76802,1.0904 -7.78032,0.83474 -11.63316,0.62498 -1.48163,-0.25144 -4.40599,-1.30867 -4.97723,-1.10127 2.45316,1.89762 -0.98802,0.9438 -2.20332,0.3453 -6.20903,-2.25989 -11.47226,-7.21095 -13.45652,-13.60268 -1.815824,-4.18033 -1.11922,-8.87079 -1.947859,-13.24209 -0.715137,2.37558 -0.712984,-2.44624 -0.793687,-3.46579 -0.381737,-4.07042 0.361402,-8.19097 0.08253,-12.21924 -0.236897,-1.66612 -4.179337,-1.03338 -4.022514,-2.24838 0.706907,-1.60158 -3.312256,-0.36137 -4.545915,-0.71684 -6.490207,0.0737 -12.980415,0.14732 -19.470622,0.22099 -2.47445,1.41083 -5.19247,3.52549 -8.182538,2.63672 0.216189,1.73476 -0.943038,3.93327 -2.429544,2.66931 0.289724,-1.449 0.572483,-2.95246 0.446064,-4.84217 -0.263794,-1.88131 2.262484,-2.66619 1.874656,-4.74604 -0.177315,-1.74213 -0.89804,-4.37046 1.762352,-3.11475 3.291043,0.0746 5.513596,3.56714 8.884075,2.96154 2.248102,0.0212 4.496203,0.0423 6.744305,0.0635 -3.188141,0.24695 -6.520663,0.0214 -9.621397,0.5544 -1.204378,1.6032 2.225984,1.56565 3.263886,1.4739 12.404087,0.0155 24.823717,0.33316 37.218078,0.15965 1.3503,-0.62972 4.63729,0.55769 4.53523,-1.46322 -0.0208,-4.2257 -0.11068,-8.6224 2.07176,-12.40987 1.72263,-3.9162 4.59462,-7.44118 8.09938,-9.8637 4.77829,-3.07897 10.73297,-4.41608 16.34539,-3.70549 3.14841,0.31232 6.08769,1.77984 8.65747,3.50618 2.35598,2.34554 4.90493,4.5468 6.16156,7.71431 2.46297,4.76712 2.82724,10.23134 2.63737,15.51083 -8.3e-4,11.09259 0.31872,22.20027 0.0842,33.28361 -0.71251,4.88251 -2.21092,9.65052 -4.95825,13.78059 -0.79795,1.5309 -2.49464,2.10926 -3.32176,3.80275 -3.65379,3.89594 -8.08643,6.9636 -13.04028,8.96964 -14.58507,5.00018 -27.44782,2.92331 -39.714493,-6.35517 z m 30.847063,-21.46085 c 3.86475,0.0818 7.57894,-2.13381 9.15016,-5.70621 1.64096,-4.36141 1.01623,-9.16828 0.99987,-13.74532 -0.11573,-4.41974 -0.82399,-9.44033 -4.66383,-12.2281 -2.77303,-2.37458 -6.65679,-2.56539 -10.15087,-2.4339 -1.66051,2.05165 1.45288,2.33722 2.87498,2.44827 4.66024,0.17521 9.01879,3.40703 10.37304,7.87621 -2.27956,-1.71991 -1.8522,1.24463 -1.43031,2.69475 0.53487,4.11752 0.58834,8.3765 -0.26224,12.45836 -0.86744,-1.49885 0.63224,-3.30974 0.0678,-5.12472 -0.10552,-2.17719 0.30707,-4.55828 -0.40759,-6.49022 -0.0247,-2.60735 -1.65922,-5.12816 -3.7235,-6.63677 -2.51443,-1.63048 -5.65691,-1.36743 -8.36181,-2.13674 -2.17056,-1.34439 -1.20102,2.44088 -1.45722,3.68145 -0.0181,5.39389 -0.4084,10.83666 0.004,16.20211 0.44772,3.31063 3.64314,5.97438 7.01952,5.50535 1.75781,0.23323 5.05378,-0.76845 1.84728,0.54659 -2.19355,0.69288 -4.73326,0.42252 -6.72698,-0.80824 -1.35477,-0.71757 -3.60162,-3.09139 -2.28469,-0.12067 1.51703,2.32809 4.31055,3.9795 7.13223,4.0178 z m 4.21728,-4.17684 c -0.81437,0.67379 2.18854,-3.05896 2.20306,-3.06056 -0.4319,1.03493 -1.15881,2.48859 -2.20306,3.06056 z M 63.710688,190.41518 c 1.136839,-0.49113 5.468298,-0.26475 4.128453,-1.79087 -1.296296,-0.86389 -3.167082,-1.79757 -4.584965,-1.64374 -1.114114,0.5816 -1.036293,3.37891 0.456512,3.43461 z m 80.546732,40.27154 c -2.32383,2.64669 1.88556,-3.09531 0.1991,-0.21334 z m 0.97657,-1.3624 c -0.80885,-0.68986 1.35678,-0.8698 0,0 z m 3.38353,-6.79302 c -1.00968,3.33587 -0.54873,-0.99852 -0.11181,-2.27739 -0.15994,-1.64629 0.68233,-2.80594 0.12018,-4.74135 0.47208,-1.47102 0.56211,-3.18542 0.27803,-5.06678 -0.34268,-1.96189 1.01383,-3.39224 0.41423,-5.47038 -0.0902,-2.40264 -0.18044,-4.80527 -0.27066,-7.20791 1.69293,0.0675 0.73774,-2.38084 1.04752,0.99746 -0.0287,6.60319 -0.21097,13.23119 -0.57299,19.81592 -0.23901,1.33317 -0.45071,2.66893 -0.9045,3.95043 z m 1.12938,-29.3226 c -0.20395,-0.70735 -0.0253,-3.71376 -0.0773,-5.33415 -0.0283,-1.42947 -0.0608,-4.62236 0.37782,-4.92642 -0.12803,3.41447 -0.0326,6.87107 -0.3005,10.26057 z m -45.64001,-4.12005 c -1.28109,-0.12732 -5.065244,0.35808 -4.658761,-0.59489 0.552531,-1.11817 0.03776,-3.67617 0.463708,-5.38641 0.621243,-10.56829 0.133403,-21.18287 0.897673,-31.75277 6.6e-4,-3.67517 1.16777,-7.21824 0.78384,-10.91449 -0.21565,-1.24469 0.62174,-4.56874 -1.04387,-4.34376 -0.807913,0.82267 -1.287795,4.31068 -1.743122,3.34071 -1.168306,-2.21559 -2.061766,-4.50778 -2.84579,-6.86494 -0.887118,-1.60657 -1.319082,-3.57256 -3.034363,-4.52517 5.909012,-0.74777 11.908625,-0.53828 17.854305,-0.8986 1.21075,1.16631 3.40239,0.41835 4.96118,0.45921 0.85484,-0.80544 -2.95417,-0.73279 0.58539,-1.23249 4.73426,-1.1585 9.79904,-0.65151 14.67867,-0.79191 1.74792,0.19615 4.71233,1.77435 1.9617,3.10427 -3.32819,2.52125 -6.19893,5.65821 -8.96224,8.7535 -2.26714,3.62577 -4.53428,7.25154 -6.80143,10.87731 0.13029,-2.01066 1.83512,-3.93298 2.57421,-5.90948 2.43825,-4.25785 5.0213,-8.42278 8.2051,-12.17084 -6.92184,6.20408 -10.94391,14.80173 -14.0727,23.39238 -3.68254,10.11622 -5.6801,20.79806 -6.51502,31.51537 -0.40494,2.19146 -0.43274,3.99755 2.27425,3.00932 0.97812,0.0917 5.19263,-0.83376 4.04188,-0.0913 -3.19893,0.66475 -6.31363,1.30656 -9.60461,1.02501 z m 0.22848,-22.47058 c 0.84257,-1.18114 0.83564,-3.7075 1.3841,-5.37769 1.80639,-9.4134 4.2894,-18.66619 7.09313,-27.82752 0.40821,-1.43797 0.73084,-3.78866 -1.46171,-3.61896 -2.45707,-0.85804 -3.05335,2.24192 -3.23876,4.0371 -1.55164,8.58896 -3.26442,17.20417 -3.85605,25.91766 -0.0738,2.2898 -0.1476,4.57961 -0.22141,6.86941 z m -17.345758,21.11385 c -2.465791,0.76538 -1.368082,-2.80491 -1.755017,-4.24715 -0.571316,-16.04162 -5.113855,-32.18984 -14.428847,-45.39086 -2.600797,-3.8869 -6.01622,-7.12575 -9.561355,-10.14226 -0.274884,-2.20553 3.105933,-0.31716 4.539093,-0.71625 4.086979,0.26291 8.191571,0.30041 12.261949,0.77576 -0.14725,2.71111 0.06282,5.35813 1.293205,7.82211 2.984857,8.05623 5.647639,16.26549 6.809778,24.80738 1.466683,8.28832 2.069168,16.72991 2.314444,25.12643 -0.09161,1.30373 0.290773,2.25346 -1.47325,1.96484 z m -25.987744,-3.12218 c -2.465269,-0.36345 0.0904,-2.44241 0.631536,-0.71182 -0.170077,0.37861 0.01319,0.9376 -0.631536,0.71182 z"
           id="path9"
           sodipodi:nodetypes="cccccccccccccccccccccccccccccccccccccccccccccccccccccccccccccccccccccccccccccccccccccsccccccccccccccccccsscccccccccccccccccccccsccssscccccccccccccccccccccssccccccccccccccccccccc" /><path
           style="display:inline;fill:#b66800"
           d="m 123.45447,251.78038 c -7.45394,0.15297 -14.9339,-1.80673 -21.27463,-5.75138 -5.579323,-3.70367 -10.446797,-8.88813 -12.461999,-15.40941 -1.103655,-3.25109 -2.399994,-6.57352 -2.279697,-10.05768 -0.813764,0.45297 0.200285,-3.13174 -0.29603,-4.54433 -0.337265,-7.28 -0.148434,-14.57114 -0.23313,-21.85649 -2.848355,-1.07861 3.594091,-1.2081 1.910584,0.30672 -0.87941,2.55653 -0.05575,5.49471 -0.242335,8.2065 0.39474,9.1882 -0.384237,18.93294 3.730172,27.4384 1.780585,3.38151 4.455733,6.19258 7.453238,8.50779 4.177707,2.96041 8.768537,5.23953 13.567547,6.98517 7.76669,2.29665 16.34058,2.50407 24.00928,-0.26854 8.88863,-3.61816 15.69086,-11.87897 17.34828,-21.35158 1.34034,-8.70349 0.52555,-17.56783 0.7642,-26.34543 -0.13389,-5.97408 0.35412,-11.97806 -0.34492,-17.92498 1.22676,1.39594 1.2646,3.63759 1.65393,5.41751 0.90737,1.11148 0.0368,-3.07805 -0.25768,-4.1811 -1.0717,-5.4126 -4.31627,-10.33815 -8.51643,-13.85144 -4.22783,-2.91224 -9.59741,-3.83039 -14.64152,-3.19646 3.15535,-1.13688 6.57556,-0.63705 9.8263,-0.42975 4.19647,1.21207 7.94548,3.69887 10.65745,7.12883 2.50858,3.37576 4.25946,7.5344 4.62618,11.72212 0.005,13.01101 0.24296,26.03683 0.10199,39.0386 -0.79102,9.92751 -6.19752,19.39496 -14.57169,24.85258 -5.32215,3.40538 -11.61908,5.15023 -17.88932,5.5891 -0.87992,-0.008 -1.75985,-0.0165 -2.63977,-0.0247 z m 0.49618,-1.65951 c 5.49144,0.14745 10.96788,-1.08584 15.98506,-3.28904 4.03904,-1.99172 7.64702,-4.71615 10.59974,-8.12203 2.4897,-2.92597 4.271,-6.59483 5.15164,-10.31146 -0.26593,-0.61116 -1.24522,3.0556 -1.91603,4.0745 -1.66846,3.06946 -3.5555,5.97263 -6.18959,8.30755 -5.29596,4.71833 -12.09203,7.84284 -19.20826,8.3811 -6.07862,0.8004 -12.34262,-0.21603 -18.07429,-2.2948 -5.2225,-2.32578 -10.2542,-5.18697 -14.462247,-9.09591 0.0356,1.39876 2.02792,3.13243 3.191239,4.32354 5.481298,5.67809 13.662448,7.52199 21.256718,8.10043 1.22201,-0.0246 2.44401,-0.0493 3.66602,-0.0739 z m 1.12447,-11.57203 c -2.03916,-0.25788 -4.27711,1.8e-4 -6.01927,-1.26578 2.27162,-0.0505 4.49567,0.61748 6.74688,0.87519 0.17859,0.69003 -0.31258,0.34367 -0.72761,0.39059 z m -11.50937,-1.55739 c -5.32231,-2.04722 -9.40958,-6.60577 -11.40806,-11.89654 -1.93739,-4.65078 -1.90581,-9.85934 -2.05387,-14.82331 -0.0367,-5.08227 0.39109,-10.29222 0.0649,-15.29492 -0.935932,-1.41454 -3.908782,-0.20978 -4.55004,-1.83307 1.874101,-0.4937 3.642825,-0.0893 4.120808,-1.18052 -4.63788,-0.92564 -9.480691,-0.33982 -14.204199,-0.62954 -1.542198,0.002 -5.927408,-0.21712 -2.138584,0.19935 3.182395,-0.056 1.095955,1.35493 -0.882341,0.90877 -4.036901,0.15559 -8.191357,-0.11129 -12.154645,0.30885 -2.262391,1.41399 -4.730064,2.87718 -7.492076,2.70613 -0.37468,-1.42242 -1.135136,-4.04293 0.271363,-4.70072 2.070384,0.35231 4.173799,-0.99053 6.346557,-0.58052 14.295918,0.54641 28.612818,0.58398 42.911127,0.46869 1.87827,-0.98186 3.05989,1.26541 2.97855,2.874 -0.26099,6.86328 -0.32398,13.8044 0.95075,20.5749 1.35693,3.54316 4.84175,5.58047 8.07013,7.15581 2.40244,1.25031 5.12675,1.03733 7.69176,0.60627 4.15342,-1.19298 6.87954,-5.25911 7.26134,-9.44657 0.32801,-5.61415 0.27101,-11.30236 -0.38273,-16.8585 -1.16586,-3.1957 -3.82299,-5.74998 -6.89181,-7.12299 -2.51338,-0.91517 -5.12911,-1.0374 -7.77735,-0.90785 -1.80885,1.03566 -0.43573,3.23748 1.37732,2.84062 3.27249,0.33 6.89709,0.92915 8.96322,3.77396 -2.14786,-0.99794 -4.29076,-2.59288 -6.86149,-2.54974 -1.38061,0.13275 -4.09823,-1.11811 -4.61939,0.16883 -1.52169,1.97927 -1.00717,-2.23484 -0.87494,-3.51303 0.0173,-3.64177 -0.73573,0.51644 -0.50519,2.08871 -0.27016,7.7473 -0.0346,15.50185 -0.0752,23.25245 0.96457,2.35853 2.70725,4.34297 5.25046,4.99672 -1.87788,0.14912 -4.02862,-1.29132 -5.10824,-2.84927 -0.91756,-3.02538 -1.72988,-0.23977 -2.5082,-1.91994 -0.6053,-3.20297 -0.0401,-6.6999 -0.19078,-10.01703 0.0769,-7.16879 0.024,-14.40266 0.72101,-21.51775 1.59036,-6.65915 7.23618,-11.90604 13.87917,-13.362 4.1507,-1.00483 8.83039,-0.28414 12.21571,2.36379 2.4138,2.01046 0.28742,1.68655 -1.28913,0.28627 -4.18337,-2.65501 -9.47623,-2.47839 -13.94105,-0.6429 -2.58295,1.33555 -5.40636,3.01884 -6.86666,5.62051 2.68762,-2.40985 5.5552,-4.7829 9.21001,-5.48932 2.38415,-0.63151 5.01945,-0.27064 7.44844,-0.16467 1.85074,0.58566 3.85558,1.53396 4.85944,3.1609 -1.18298,0.0493 -3.13279,-1.72197 -4.8069,-1.92243 -4.94653,-1.54493 -10.40747,0.291 -14.09555,3.79027 -2.8485,2.58402 -4.42108,6.40671 -4.45076,10.25127 1.41817,-0.16621 2.89931,0.62812 4.70611,0.29585 6.58308,-0.13837 12.78422,4.64018 14.46109,10.99893 1.25692,3.37608 0.32774,7.1071 0.6026,10.64263 0.21841,3.53537 -0.056,7.17082 -2.05673,10.21385 -1.24418,2.81389 -3.71555,4.76009 -6.55235,5.81714 -2.07086,1.03275 -4.62759,0.59224 -6.87616,0.65686 -3.7438,-0.67685 -6.81468,-3.30556 -9.04352,-6.2243 -0.99538,-3.60075 -2.88479,-7.06558 -2.34131,-10.90506 l 0.0444,-14.20761 c -1.33994,-1.77005 -2.75698,-0.49676 -4.57804,-0.93375 -1.89673,0.16713 -3.55215,-0.0955 -2.76003,2.09669 -1.26402,0.27674 -0.92512,2.66302 -1.15973,4.33003 -0.0136,8.04696 -1.09727,16.16074 0.12407,24.1497 0.20025,1.27232 1.806,4.06166 1.1855,4.49161 -1.00883,-0.93827 -2.46481,-4.09711 -1.40655,-0.89193 1.00652,4.1944 4.42859,6.98995 7.25326,10.00335 -0.0685,0.0469 0.11393,0.36537 -0.0656,0.29207 z m -7.94594,-13.06058 c -0.41674,-2.5234 -0.73128,-5.33998 -0.65461,-8.02932 -0.0868,-3.59553 -0.17365,-7.19105 -0.26047,-10.78658 0.15954,5.75323 -0.15117,11.57646 0.30471,17.28557 0.22065,0.34306 0.27141,1.71426 0.61037,1.53033 z m 22.57473,-0.18048 c 4.23058,0.40985 8.91118,-1.62637 10.64283,-5.67084 -2.15052,2.2422 -4.48777,4.4606 -7.6941,4.95197 -3.53943,0.74292 -7.28985,-0.40806 -10.23633,-2.45541 -2.16868,-0.75235 1.33772,2.22768 2.44531,2.38096 1.53571,0.73168 3.15963,0.89556 4.84229,0.79332 z m -23.11867,-23.46407 c 0.0796,-2.44769 -0.43096,1.27643 0,0 z m -33.909602,-8.56004 c 1.340299,-0.0216 5.119516,-0.59925 1.719792,-0.4625 -0.559393,-0.38047 -3.76857,0.51867 -1.719792,0.4625 z m 9.392709,-0.27913 c 1.992833,-0.16084 -1.966457,-0.18401 -0.01809,0 z m 42.720903,-13.71656 c 1.56197,-1.44985 -0.0398,-1.40317 0,0 z m 5.69785,40.94904 c -3.25356,-0.19873 3.13973,-0.14778 0,0 z m -21.9888,-9.16218 c -105.3699999,-207.0154674 -105.3699999,-207.0154674 0,0 z M 61.068219,198.31708 c -2.739318,-0.41896 2.225654,-1.91065 0.249203,-0.0357 z m 0.110028,-1.84964 c -1.825896,0.0801 -0.13649,-3.43802 -0.193846,-4.0038 1.730756,-2.12667 0.812087,2.12802 0.944809,3.21249 0.07403,0.81602 0.0178,0.73866 -0.750963,0.79131 z m 72.009143,-1.18753 c -1.91858,-0.6879 -3.83672,-2.17655 -6.11634,-2.00793 -0.86578,0.0487 -4.87946,-0.65407 -3.0503,-1.25273 3.2932,-0.0268 7.01516,0.59815 9.27526,3.17713 z m -63.30474,-6.50286 c -1.651204,0.57037 -2.909985,-1.92962 -4.714019,-1.90226 -1.345485,-0.0401 -4.482684,-0.93154 -1.95309,-1.45113 2.735088,0.002 5.045942,1.67175 7.271624,3.07792 -0.201505,0.0918 -0.40301,0.18365 -0.604515,0.27547 z m 33.95966,0.28737 c -1.8272,0.18817 -3.69737,-0.67686 -2.96045,-2.80889 0.2779,-13.47166 -6.1e-4,-27.01208 1.63072,-40.40613 0.74167,-3.51804 0.98157,-7.15674 1.63876,-10.65096 0.55371,-2.60918 2.12857,0.65561 1.70604,1.93072 0.11596,5.85338 -0.91477,11.7097 -1.47216,17.54243 -0.64779,5.57972 -1.34812,11.24797 -0.93855,16.84994 0.20345,3.03857 1.11192,-1.9704 1.2744,-2.96801 1.88173,-10.50615 3.57649,-21.2469 7.96451,-31.0474 1.09451,-2.68276 3.06354,-5.15977 3.59215,-7.97568 -1.23554,-1.83388 -0.20645,-1.20345 1.63369,-2.05837 1.79129,-1.04637 4.05443,-0.54442 5.90693,-1.56461 3.15779,-0.27078 6.33209,-0.47139 9.34973,0.70425 2.36663,0.91867 -1.40548,2.33914 -2.14585,3.3204 -3.39427,3.16634 -7.0783,6.17568 -9.06854,10.48834 -1.10699,1.94314 -2.30636,3.8285 -3.55923,5.6804 1.08004,-3.46531 3.76017,-6.25881 5.36138,-9.53288 1.78434,-2.92446 4.16041,-5.42775 6.3488,-8.04985 -2.88055,1.06828 -4.69093,4.13306 -6.73839,6.39403 -4.27755,5.24795 -6.9114,11.49775 -9.35754,17.74475 -4.3211,11.36115 -6.26197,23.4459 -7.14851,35.52476 -1.70726,-0.54439 -0.80185,1.41751 -3.01789,0.88276 z M 87.507517,187.5787 c -2.130152,0.32553 -0.926221,-3.0839 -1.459965,-4.39254 -0.663744,-11.59705 -3.675547,-23.0291 -8.430553,-33.60665 -3.385938,-7.18449 -7.647824,-14.08386 -13.557873,-19.47392 -2.637498,-1.10309 0.202186,-1.88043 -1.630638,-1.85208 -2.978417,-1.36567 1.312348,-1.22538 2.660211,-0.91104 3.552138,0.40942 7.360989,0.14593 10.760087,0.85751 -0.315442,0.50524 0.163955,2.80491 0.976537,4.15349 4.239807,9.72833 7.709679,19.84927 9.156074,30.39953 1.403339,8.14907 1.88811,16.42526 2.066082,24.68449 l -0.311217,0.0814 z m 43.983753,-23.09992 c -1.28911,-0.50817 3.50922,-0.68491 0.20761,-0.006 z M 105.0605,133.47352 c -0.17924,-0.89308 -0.11687,-0.56422 0,0 z m -5.394685,-3.92524 c -0.752862,-0.27134 -4.874534,-1.31105 -2.650682,-1.61053 3.660377,0.002 7.451727,-0.56821 11.031537,-0.2139 0.0505,0.39904 -3.22127,1.3118 -4.43443,0.80553 -1.34818,-0.45675 -3.38899,-0.19048 -3.946425,1.0189 z"
           id="path8"
           sodipodi:nodetypes="cccccccccccccccccccccccccscsccccccccccssccccccccccccccccccccccccccccccccccccccccccccccccccccccccccccccccccccccccccccccccccccccccccccccccccccccccccccccccccccccccccccccccccccccccccccccccccccccccc" /><path
           style="display:inline;fill:#a85800"
           d="m 124.47981,251.41544 c -5.45982,0.41362 -10.96571,-0.65364 -16.05744,-2.58677 -4.23085,-1.76449 -8.29581,-4.0174 -11.355789,-7.50864 -5.581164,-4.57169 -7.584928,-11.898 -8.710343,-18.73246 -1.209942,-8.05492 -0.637451,-16.23507 -0.973066,-24.35142 0.970929,-3.01396 0.413529,1.73982 0.574946,2.84021 0.139167,7.91639 0.128635,15.93373 1.813049,23.6934 1.452585,5.34146 4.5207,10.19168 8.959364,13.5387 6.724669,5.66618 15.308459,9.01746 24.088269,9.49534 7.34136,0.20922 15.00889,-1.33037 20.96222,-5.86557 2.47786,-1.77414 4.63235,-4.11926 6.59304,-6.42401 3.64716,-5.43671 5.171,-11.94965 5.41954,-18.42503 0.13767,-3.50804 0.7391,-1.70803 0.40224,0.75179 -0.0441,4.46464 -0.11559,9.02945 -2.15808,13.11769 -1.97336,4.48881 -4.82699,8.69555 -8.92337,11.51162 -5.22776,4.00693 -11.65658,6.1642 -18.19708,6.62604 -7.19352,0.40991 -14.59881,-0.95902 -20.8833,-4.60022 -4.27854,-2.09288 -8.131708,-4.9728 -11.47069,-8.36187 -0.203961,1.43712 1.841233,3.37778 2.887526,4.69917 2.4558,2.39013 4.828654,4.8941 8.070244,6.20567 4.634,2.37862 9.9415,3.08893 15.08034,3.44953 7.05626,0.29044 14.34849,-0.69061 20.67866,-3.95388 5.60497,-3.02663 10.63529,-7.48284 13.09116,-13.48607 3.66451,-7.50332 3.19645,-16.085 3.17724,-24.21397 -0.0957,-8.43192 0.19303,-16.89308 -0.14514,-25.30655 -0.61194,-6.62291 -4.37112,-12.48964 -9.18566,-16.89712 -1.15031,-1.29133 2.73292,1.16777 3.33221,2.03522 4.24324,3.48391 6.16447,9.11042 6.82049,14.41503 -0.0652,12.93544 0.14299,25.89272 -0.0918,38.81463 -1.03306,10.06938 -6.67965,19.77079 -15.56513,24.84644 -5.50055,3.06364 -11.90419,4.95512 -18.23361,4.6731 z m -15.27338,-17.59286 c -2.3991,-2.03593 -4.833,-4.47395 -6.13862,-7.48386 -3.504513,-6.48741 -2.30167,-14.05385 -2.53017,-21.12584 -0.13859,-3.55702 0.2462,-7.26355 -0.2145,-10.72855 -0.590474,-0.89289 -5.296671,-0.26137 -3.436715,-1.35759 3.306785,-0.0742 6.613575,-0.14847 9.920365,-0.22271 1.92315,1.44651 -0.76856,1.41682 -0.33063,3.27053 -0.65627,7.97549 -0.56184,15.97623 -0.63822,23.97122 -0.97719,-4.07196 -0.16401,-8.36334 -0.36352,-12.53061 -0.0697,-4.43651 0.33131,-9.07454 -0.12759,-13.38629 -1.03882,0.60771 -0.33697,3.67146 -0.68422,5.20295 -0.52835,7.98313 -0.24947,16.00921 -0.0158,23.98506 0.80724,3.78334 2.45168,7.32135 4.76356,10.40569 z m 20.31568,-9.35989 c -1.23532,0.41025 -5.67455,-0.51036 -2.25053,-0.39368 4.152,0.35512 8.45022,-0.98591 11.16754,-4.25693 -0.20899,0.80199 -2.09364,2.46175 -3.36213,3.18548 -1.81312,0.91211 -3.45325,1.72226 -5.55488,1.46513 z m -0.52626,-1.51053 c -3.05402,0.10319 -6.15803,-1.08638 -8.3525,-3.21002 2.81512,1.9152 6.21923,3.21049 9.65529,2.57162 4.57362,-0.22638 8.21722,-4.162 9.09586,-8.51426 0.54721,-3.69144 0.27059,-7.50973 0.49984,-11.25013 1.01781,1.9841 0.18437,4.50647 0.45876,6.70672 0.0887,4.09878 -0.90536,8.47181 -4.19162,11.19877 -1.9143,1.65108 -4.61913,2.67687 -7.16563,2.4973 z m -8.60233,-3.1525 c -2.29294,-1.31311 -0.84813,-1.65544 0.11754,0 z m 18.75205,-1.05833 c -0.001,-0.95381 1.19196,-1.49118 0.13229,0 z m 1.29503,-2.64583 c -0.67538,1.3273 0.59587,-2.92538 0.58074,-3.95909 0.45671,-5.36909 0.84816,-10.9868 -1.44273,-16.02955 -0.87737,-2.25133 -2.23246,-4.22885 -3.81502,-6.043 4.22078,2.73124 6.19449,8.13163 5.77037,13.01787 -0.28794,4.30998 0.73067,8.98442 -1.09336,13.01377 z m -18.22249,-0.52917 c -1.31144,-0.49801 -1.38045,-4.57391 -1.98755,-3.48779 -0.53414,3.14883 -1.1179,-0.84927 -0.97188,-2.10299 0.25881,-8.65413 0.12657,-17.33804 0.62905,-25.97361 0.10314,-2.925 1.60472,-5.59304 3.12294,-7.98992 3.01552,-3.809 7.40042,-6.55303 12.26561,-7.13837 2.81283,-0.39344 5.95174,0.0386 8.37867,1.4939 -0.18633,0.4108 -3.27446,-1.26323 -4.69063,-0.96437 -5.00101,-0.62934 -10.09365,1.50996 -13.78124,4.81235 -3.21177,3.20066 -4.82343,7.87487 -4.33799,12.37892 0.28631,-5.37596 3.05934,-10.67366 7.85792,-13.30853 1.57869,-1.05499 3.52917,-1.86339 5.43415,-1.86641 -3.53175,1.01615 -6.7424,2.87938 -9.10972,5.71443 -1.88545,2.08698 -2.81155,5.04658 -3.28379,7.7736 -0.7338,9.12755 -0.32057,18.2902 -0.43944,27.43657 0.25994,1.02611 0.84359,2.34088 0.9139,3.22222 z m 33.92235,-3.37344 c -0.45337,0.59111 0.14028,-2.05889 0.0136,-0.0337 z m -0.0129,-6.68073 c -0.6516,-3.26505 0.0153,-7.03962 -0.0944,-10.49884 0.0401,-1.52447 0.10013,-5.80354 0.10147,-1.99953 -0.0364,4.12961 0.20043,8.53977 -0.007,12.49837 z m -95.015449,-7.40833 c -2.86422,-0.58664 2.746073,-0.64725 0,0 z m 0,-1.85208 c -1.959299,0.27644 0.18476,-4.67467 0.643432,-2.1383 -0.169877,0.6517 0.649641,2.52605 -0.643432,2.1383 z m 26.888518,-0.78722 c -0.844246,2.5683 -0.369894,-3.6807 0.05998,-0.2921 z M 63.991,195.19307 c -1.893991,0.2708 -1.401579,-2.8061 -1.026822,-3.8721 6.554751,-1.53522 13.286531,-0.46723 19.939236,-0.53972 3.416367,0.0509 2.474593,0.0881 -0.387076,0.11936 -4.55242,0.0759 -9.104766,0.15621 -13.657132,0.23526 -1.124194,1.81687 -2.949735,2.80009 -5.081867,2.74724 -1.485651,1.50729 2.542452,0.14837 3.307707,-0.55459 0.854543,-0.83648 5.129496,-2.09045 2.73221,-0.49625 -1.748104,1.16695 -3.66919,2.33885 -5.826256,2.3608 z m 41.66712,-2.79551 c -2.03875,0.71943 -3.41496,-0.78588 -5.20268,-0.9583 -0.944723,-0.11166 -5.868769,-0.34138 -3.722285,-0.36136 5.677015,-0.0835 11.354025,-0.16697 17.031035,-0.25045 1.39317,1.93345 -2.56915,0.95238 -3.70771,1.33 -1.46623,0.0781 -2.93234,0.15822 -4.39836,0.24011 z m 19.35086,0.0883 c -3.24598,-0.19814 3.13077,-0.14845 0,0 z M 79.963665,192.2786 c -1.063123,0.30124 -5.691905,-0.35685 -2.753911,-0.51837 1.998353,-0.002 3.996705,-0.004 5.995057,-0.007 0.08947,1.13607 -2.432448,0.24252 -3.241146,0.52496 z m 42.664065,-0.26053 c -0.53632,-0.96841 -0.0859,-4.81081 1.01011,-1.88248 1.94034,0.86886 4.47131,0.38701 6.26593,1.42682 -2.33243,-0.27337 -4.67194,-0.47453 -7.01146,-0.67566 -0.14645,0.27772 0.30905,1.3086 -0.26458,1.13132 z m 12.33552,-2.38125 c -1.2515,-1.0582 -1.33394,-1.72998 0,0 z m 21.18377,-0.32764 c -0.34629,0.76722 0.0456,-3.39166 0.0391,-0.15002 z m -51.88269,-0.49954 c -1.63981,-0.32601 -3.89914,-0.35365 -3.06321,-2.66567 -0.0393,-12.10163 0.43865,-24.22536 1.57631,-36.26796 0.56986,-2.10744 0.31351,-4.63918 1.41368,-6.47427 1.35938,-0.36576 0.50344,3.3253 0.47603,4.63089 -0.63187,7.98275 -2.03714,15.91003 -1.71618,23.94228 0.31158,1.71186 -0.73229,3.97746 0.57647,5.28194 1.85543,-9.79504 2.90579,-19.76432 5.7056,-29.36634 1.49527,-5.84263 4.27024,-11.22784 7.37478,-16.3598 1.26563,-1.57898 0.11269,-3.69762 2.38543,-4.11189 3.35333,-0.92581 7.12473,-0.0543 10.4499,-1.2932 1.21755,1.07705 3.56372,-0.13991 4.29716,1.18179 -0.8157,1.29807 -2.85175,2.01707 -3.87617,3.4069 -0.85784,0.65501 -3.70318,3.76128 -3.29619,2.6313 1.08807,-1.88906 3.00819,-3.18091 4.06904,-5.10867 -1.47629,-0.36577 -3.04107,1.87183 -4.23757,2.92 -4.79917,5.10858 -8.70571,11.12979 -11.05603,17.75995 -5.21226,12.02121 -7.57049,25.04272 -8.70464,38.03458 -0.19536,-0.99868 -0.23021,-3.4707 0.008,-5.02774 0.31072,-5.25004 1.16487,-10.444 1.98341,-15.63365 -0.61328,0.29481 -0.79435,3.05535 -1.23216,4.31716 -1.16824,5.70404 -1.60254,11.51186 -2.00598,17.30976 -0.38132,0.23052 -0.60153,1.07412 -1.12726,0.89264 z m 6.97265,-33.70094 c 2.28873,-5.88404 4.64823,-11.73541 7.64903,-17.30366 1.06751,-1.44981 1.77064,-4.49579 0.0212,-1.4616 -4.07628,5.74219 -6.04731,12.59251 -7.92399,19.29442 l 0.13845,-0.28877 z m -41.724357,33.46391 c -1.82359,-0.72453 -3.567484,-2.51703 -5.809563,-2.26096 -2.848121,-0.6447 0.690931,-1.1464 1.906955,-0.1876 1.592618,0.41392 3.254647,1.42479 4.365625,2.45439 l -0.320221,-0.004 z m 54.498947,-1.10901 c -1.51458,2.15111 -2.01249,-2.55478 -0.72057,-0.78478 1.14131,0.10845 2.58664,0.0771 0.72057,0.78478 z m 7.87658,0.53817 c -2.20616,-0.10096 -3.6229,-1.39024 -0.6069,-0.49644 0.16121,0.0412 1.64763,0.75348 0.6069,0.49644 z m -44.746218,-0.7462 c -0.55465,-1.31786 -0.305203,-3.68892 -0.585365,-5.39649 -0.530734,-9.97265 -2.511693,-19.83411 -5.904378,-29.2272 -0.762327,-2.13736 -1.632686,-4.35254 -2.817211,-6.25443 0.860057,3.33633 2.851019,6.47032 3.195103,9.87442 -0.538384,0.26834 -1.461064,-3.19341 -2.147786,-4.36489 -3.398335,-7.49352 -7.471021,-14.85175 -13.298867,-20.73198 -2.77927,-1.85129 0.08751,-0.9468 -1.967572,-2.91839 -2.371721,-0.47741 -2.482601,-1.29333 0.142045,-0.78574 3.464396,0.35238 7.102472,0.1354 10.459674,0.83918 -0.388499,1.64408 1.78208,3.20886 2.208548,4.94073 4.128235,8.87767 7.185926,18.29312 8.709165,28.0043 1.405037,8.59001 2.52726,17.30021 2.239562,26.02049 z m 40.777468,-0.0418 c -1.99036,-0.16006 1.9603,-0.1851 0.021,0 z m -2.00643,-0.2437 c -2.43334,-0.20078 2.04741,-0.18246 0,0 z m 16.16163,-14.8376 c -2.91751,-0.45569 -2.03736,-1.26157 0.26459,-0.001 z m -7.43038,-0.77282 c -2.433,-0.20066 2.04729,-0.18258 0,0 z m 12.72205,-5.55182 c -0.97005,-0.59755 -4.42627,-1.57535 -4.04482,-1.82185 1.19845,0.1284 4.01487,1.13818 4.04482,1.82185 z"
           id="path7"
           sodipodi:nodetypes="scccccccccccccccccccccccccccccsscccccccccccccccccccccccccccccccccccccccccccccccccccccccccccccccccccccccccccccccccccccccccccccccccccccccccccccccccccccccccccccccccccccccccccccccccccccccccccccccccccccccccccc" /></g></g></g></svg>
